<mxfile host="app.diagrams.net" modified="2023-10-15T21:47:24.883Z" agent="Mozilla/5.0 (Windows NT 10.0; Win64; x64) AppleWebKit/537.36 (KHTML, like Gecko) Chrome/117.0.0.0 Safari/537.36" version="22.0.4" etag="8g1cVaTKwVYUjERJ0Mal" type="github">
  <diagram name="PÃ¡gina-1" id="YGdWLPUlQ0OSezbroPg7">
    <mxGraphModel>
      <root>
        <mxCell id="0" />
        <mxCell id="1" parent="0" />
      </root>
    </mxGraphModel>
  </diagram>
</mxfile>
